<?xml version="1.0" encoding="UTF-8"?>
<svg id="Layer_1" data-name="Layer 1" xmlns="http://www.w3.org/2000/svg" viewBox="0 0 57.6 57.6">
  <defs>
    <style>
      .cls-1 {
        fill: #123015;
      }
    </style>
  </defs>
  <g>
    <g id="_Radial_Repeat_" data-name="&amp;lt;Radial Repeat&amp;gt;">
      <rect class="cls-1" x="34.2377" y="32.6226" width=".1899" height="24.3897" transform="translate(-22.0864 42.7635) rotate(-50.461)"/>
      <rect class="cls-1" x="18.0783" y="45.8764" width="25.4185" height=".1897" transform="translate(-23.7688 55.1821) rotate(-65.7723)"/>
    </g>
    <g id="_Radial_Repeat_-2" data-name="&amp;lt;Radial Repeat&amp;gt;">
      <rect class="cls-1" x="26.7399" y="33.4385" width=".1897" height="24.3898" transform="translate(-16.6383 15.424) rotate(-24.7469)"/>
      <rect class="cls-1" x="10.4308" y="45.0399" width="25.4185" height=".1898" transform="translate(-23.6103 25.4621) rotate(-40.0348)"/>
    </g>
    <g id="_Radial_Repeat_-3" data-name="&amp;lt;Radial Repeat&amp;gt;">
      <rect class="cls-1" x="7.5303" y="43.0202" width="24.3898" height=".1898" transform="translate(-23.7176 62.1078) rotate(-89.0302)"/>
      <rect class="cls-1" x="3.9036" y="40.9679" width="25.4185" height=".1898" transform="translate(-9.6438 5.3875) rotate(-14.3258)"/>
    </g>
    <g id="_Radial_Repeat_-4" data-name="&amp;lt;Radial Repeat&amp;gt;">
      <rect class="cls-1" x="2.2177" y="37.6665" width="24.3898" height=".1898" transform="translate(-25.7983 33.6713) rotate(-63.3015)"/>
      <rect class="cls-1" x="12.4039" y="21.8527" width=".1898" height="25.4185" transform="translate(-23.8489 40.0013) rotate(-78.6293)"/>
    </g>
    <g id="_Radial_Repeat_-5" data-name="&amp;lt;Radial Repeat&amp;gt;">
      <rect class="cls-1" x="-.246" y="30.538" width="24.3897" height=".1899" transform="translate(-16.2155 13.6647) rotate(-37.6232)"/>
      <rect class="cls-1" x="11.518" y="14.2106" width=".1898" height="25.4185" transform="translate(-16.8648 19.9513) rotate(-52.9149)"/>
    </g>
    <g id="_Radial_Repeat_-6" data-name="&amp;lt;Radial Repeat&amp;gt;">
      <rect class="cls-1" x=".6271" y="23.0467" width="24.3898" height=".1898" transform="translate(-4.487 3.1332) rotate(-11.8733)"/>
      <rect class="cls-1" x="14.0354" y="6.9412" width=".1898" height="25.4185" transform="translate(-7.4197 8.6322) rotate(-27.2007)"/>
    </g>
    <g id="_Radial_Repeat_-7" data-name="&amp;lt;Radial Repeat&amp;gt;">
      <rect class="cls-1" x="16.7642" y="4.5758" width=".1898" height="24.3898" transform="translate(-3.4543 29.1341) rotate(-76.1755)"/>
      <rect class="cls-1" x="19.4576" y="1.4837" width=".1899" height="25.4185" transform="translate(-.3615 .5119) rotate(-1.4862)"/>
    </g>
    <g id="_Radial_Repeat_-8" data-name="&amp;lt;Radial Repeat&amp;gt;">
      <rect class="cls-1" x="23.1657" y=".5877" width=".1899" height="24.3898" transform="translate(-1.4049 22.5836) rotate(-50.4611)"/>
      <rect class="cls-1" x="14.0965" y="11.5339" width="25.4185" height=".1897" transform="translate(5.2011 31.3015) rotate(-65.7723)"/>
    </g>
    <g id="_Radial_Repeat_-9" data-name="&amp;lt;Radial Repeat&amp;gt;">
      <rect class="cls-1" x="30.6637" y="-.2281" width=".1897" height="24.3897" transform="translate(-2.1847 13.9746) rotate(-24.7466)"/>
      <rect class="cls-1" x="21.7439" y="12.3705" width="25.4186" height=".1898" transform="translate(.0556 25.0833) rotate(-40.0348)"/>
    </g>
    <g id="_Radial_Repeat_-10" data-name="&amp;lt;Radial Repeat&amp;gt;">
      <rect class="cls-1" x="25.6731" y="14.3901" width="24.3898" height=".1898" transform="translate(22.7442 52.1025) rotate(-89.0302)"/>
      <rect class="cls-1" x="28.2713" y="16.4424" width="25.4185" height=".1898" transform="translate(-2.8176 10.6543) rotate(-14.3258)"/>
    </g>
    <g id="_Radial_Repeat_-11" data-name="&amp;lt;Radial Repeat&amp;gt;">
      <rect class="cls-1" x="30.9858" y="19.7436" width="24.3898" height=".1898" transform="translate(6.0564 49.502) rotate(-63.3015)"/>
      <rect class="cls-1" x="44.9996" y="10.3289" width=".1898" height="25.4184" transform="translate(13.6178 62.7052) rotate(-78.6291)"/>
    </g>
    <g id="_Radial_Repeat_-12" data-name="&amp;lt;Radial Repeat&amp;gt;">
      <rect class="cls-1" x="33.4496" y="26.8721" width="24.3897" height=".1899" transform="translate(-6.9704 33.4724) rotate(-37.6232)"/>
      <rect class="cls-1" x="45.8856" y="17.9708" width=".1898" height="25.4185" transform="translate(-6.2205 48.8605) rotate(-52.9149)"/>
    </g>
    <g id="_Radial_Repeat_-13" data-name="&amp;lt;Radial Repeat&amp;gt;">
      <rect class="cls-1" x="32.5765" y="34.3636" width="24.3898" height=".1898" transform="translate(-6.1319 9.9489) rotate(-11.8733)"/>
      <rect class="cls-1" x="43.3682" y="25.2404" width=".1898" height="25.4185" transform="translate(-12.5406 24.0641) rotate(-27.2007)"/>
    </g>
    <g id="_Radial_Repeat_-14" data-name="&amp;lt;Radial Repeat&amp;gt;">
      <rect class="cls-1" x="40.6393" y="28.6345" width=".1898" height="24.3898" transform="translate(-8.6458 70.6275) rotate(-76.1755)"/>
      <rect class="cls-1" x="37.9458" y="30.6978" width=".1899" height="25.4185" transform="translate(-1.113 1.0012) rotate(-1.4862)"/>
    </g>
  </g>
  <circle class="cls-1" cx="12.2534" cy="42.1285" r=".8225"/>
  <circle class="cls-1" cx="45.5797" cy="41.947" r=".8225"/>
  <circle class="cls-1" cx="37.8334" cy="17.5415" r=".8238"/>
</svg>