<?xml version="1.0" encoding="UTF-8"?>
<svg id="Layer_1" data-name="Layer 1" xmlns="http://www.w3.org/2000/svg" viewBox="0 0 57.6 57.6">
  <defs>
    <style>
      .cls-1 {
        fill: #d64000;
      }
    </style>
  </defs>
  <g>
    <path class="cls-1" d="M27.0696,57.5126l-.1893-.0012c.016-2.4931.8662-3.7526,1.6884-4.9707.8436-1.2498,1.6406-2.4302,1.6561-4.866.0157-2.4358-.766-3.6262-1.5935-4.8867-.8065-1.2286-1.6406-2.4989-1.6246-4.992l.1893.0012c-.0157,2.4358.766,3.6264,1.5935,4.8868.8065,1.2286,1.6406,2.4989,1.6246,4.9919-.0159,2.4931-.8662,3.7526-1.6884,4.9707-.8436,1.2498-1.6405,2.4302-1.6561,4.866Z"/>
    <path class="cls-1" d="M22.5994,56.8883l-.1868-.0308c.4059-2.4598,1.4426-3.5709,2.4453-4.6454,1.0288-1.1023,2.0005-2.1436,2.397-4.5469.3965-2.4034-.1893-3.7014-.8094-5.0759-.6045-1.3395-1.2295-2.7247-.8238-5.1846l.1868.0308c-.3965,2.4034.1893,3.7016.8095,5.076.6044,1.3395,1.2294,2.7247.8237,5.1845-.4059,2.4598-1.4426,3.5709-2.4454,4.6453-1.0288,1.1025-2.0005,2.1437-2.3968,4.547Z"/>
    <path class="cls-1" d="M18.2817,55.5725l-.1797-.0597c.7856-2.366,1.9835-3.3012,3.1419-4.2056,1.1885-.9278,2.3112-1.8043,3.0787-4.116.7676-2.3118.3922-3.6855-.0054-5.14-.3874-1.4176-.7879-2.8835-.0025-5.2496l.1797.0597c-.7675,2.3117-.3921,3.6855.0054,5.14.3875,1.4176.7881,2.8834.0025,5.2496-.7856,2.3661-1.9835,3.3012-3.1419,4.2056-1.1885.9279-2.3111,1.8044-3.0787,4.116Z"/>
    <path class="cls-1" d="M14.2231,53.5973l-.1681-.087c1.1461-2.2141,2.4755-2.9502,3.7611-3.6622,1.319-.7305,2.5649-1.4206,3.6847-3.5837,1.1197-2.1633.9638-3.5789.7988-5.0776-.161-1.4609-.3274-2.9713.8187-5.1854l.1681.087c-1.1197,2.1632-.9638,3.5788-.7988,5.0775.161,1.4609.3274,2.9714-.8187,5.1855s-2.4755,2.9502-3.7611,3.6622c-1.319.7305-2.5649,1.4206-3.6847,3.5837Z"/>
    <path class="cls-1" d="M10.5233,51.0117l-.1523-.1122c1.4783-2.0075,2.9065-2.5267,4.2876-3.0289,1.4171-.5152,2.7556-1.0018,4.2-2.9632,1.4444-1.9615,1.5118-3.3841,1.5831-4.8903.0696-1.4679.1416-2.9858,1.62-4.9933l.1523.1122c-1.4444,1.9614-1.5118,3.3841-1.5831,4.8902-.0696,1.468-.1416,2.986-1.62,4.9935-1.4783,2.0075-2.9065,2.5267-4.2876,3.0289-1.417.5152-2.7555,1.0018-4.2,2.9632Z"/>
    <path class="cls-1" d="M7.2737,47.8793l-.1331-.1348c1.7742-1.7515,3.266-2.0409,4.7087-2.3208,1.4802-.2872,2.8784-.5584,4.6118-2.2698,1.7335-1.7112,2.0226-3.1058,2.3288-4.5822.2983-1.4391.6069-2.9271,2.3809-4.6787l.1331.1348c-1.7335,1.7113-2.0226,3.1059-2.3287,4.5823-.2984,1.4389-.607,2.9269-2.3811,4.6786-1.7742,1.7515-3.266,2.0409-4.7087,2.3208-1.4802.2872-2.8784.5584-4.6118,2.2698Z"/>
    <path class="cls-1" d="M4.5539,44.2768l-.1102-.1538c2.0262-1.4525,3.545-1.5049,5.0138-1.5557,1.5068-.052,2.9303-.1013,4.91-1.5203,1.9798-1.4191,2.4835-2.7513,3.0169-4.1616.5197-1.3746,1.0574-2.796,3.0837-4.2484l.1102.1538c-1.9798,1.4191-2.4835,2.7512-3.0169,4.1615-.5197,1.3747-1.0574,2.796-3.0837,4.2485-2.0262,1.4525-3.5449,1.5049-5.0137,1.5557-1.507.0521-2.9303.1013-4.9101,1.5203Z"/>
    <path class="cls-1" d="M2.4313,40.2935l-.0848-.1693c2.2286-1.1175,3.7369-.9315,5.1955-.7522,1.4964.1843,2.9098.3583,5.0874-.7335,2.1775-1.0919,2.8833-2.3288,3.6307-3.6383.7285-1.2764,1.4818-2.5963,3.7104-3.7139l.0848.1693c-2.1775,1.0919-2.8833,2.3288-3.6307,3.6383-.7285,1.2764-1.4818,2.5963-3.7104,3.7139-2.2285,1.1174-3.7367.9318-5.1953.7521-1.4964-.1844-2.9099-.3587-5.0875.7336Z"/>
    <path class="cls-1" d="M8.8578,36.5868c-1.0596,0-1.9183-.2466-2.7602-.4883-1.449-.4161-2.818-.8093-5.1396-.0714l-.0574-.1804c2.3764-.7554,3.8369-.3359,5.2493.0699,1.4493.4161,2.8185.8091,5.1394.0714,2.3215-.7379,3.2123-1.8491,4.1552-3.0257.9192-1.1467,1.8697-2.3325,4.2456-3.0876l.0574.1804c-2.3215.7379-3.2123,1.8491-4.1552,3.0257-.9192,1.1467-1.8697,2.3325-4.2456,3.0876-.9599.305-1.7706.4184-2.4889.4184Z"/>
    <path class="cls-1" d="M9.0179,33.458c-1.638,0-2.7244-.5072-3.7825-1.001-1.3662-.6377-2.657-1.2398-5.0652-.8746l-.0283-.1871c2.4649-.3741,3.8419.2686,5.1736.8901,1.3662.6377,2.6568,1.24,5.0651.8746,2.4082-.3657,3.4617-1.3239,4.5772-2.3384,1.0872-.9887,2.2115-2.0112,4.6765-2.3854l.0283.1871c-2.4083.3656-3.462,1.3238-4.5775,2.3384-1.0872.9887-2.2113,2.0112-4.6762,2.3854-.5066.0769-.9673.1109-1.391.1109Z"/>
    <path class="cls-1" d="M9.9945,30.4144c-.0235,0-.0467-.0001-.0705-.0002-2.493-.0159-3.7526-.8662-4.9707-1.6884-1.2498-.8436-2.4301-1.6405-4.8659-1.6561l.0012-.1893c2.493.016,3.7526.8662,4.9707,1.6884,1.2498.8436,2.4301,1.6406,4.8659,1.6561.0239.0001.0479.0002.0717.0002,2.3877,0,3.5671-.7744,4.8151-1.5937,1.2168-.7989,2.4751-1.6248,4.9214-1.6248.0235,0,.0467.0001.0705.0002l-.0012.1893c-.0239-.0001-.0479-.0002-.0717-.0002-2.3877,0-3.567.7744-4.815,1.5937-1.2168.7989-2.4751,1.6248-4.9215,1.6248Z"/>
    <path class="cls-1" d="M11.3943,27.5708c-.4515,0-.9443-.0392-1.4903-.1293-2.4598-.4059-3.5709-1.4426-4.6453-2.4454-1.1025-1.0288-2.1437-2.0005-4.547-2.3968l.0308-.1868c2.4598.4059,3.5709,1.4426,4.6454,2.4453,1.1023,1.0288,2.1436,2.0005,4.5469,2.397,2.4031.3964,3.7014-.1893,5.0759-.8095,1.3396-.6044,2.7252-1.2295,5.1845-.8237l-.0308.1868c-2.4032-.3967-3.7014.1893-5.0759.8095-1.0422.4702-2.1121.953-3.6942.953Z"/>
    <path class="cls-1" d="M12.9201,24.9531c-.7401,0-1.5759-.1205-2.571-.451-2.3661-.7856-3.3012-1.9835-4.2056-3.1419-.9279-1.1885-1.8044-2.3111-4.116-3.0787l.0597-.1797c2.366.7856,3.3012,1.9835,4.2056,3.1419.9278,1.1885,1.8043,2.3112,4.116,3.0787,2.3119.7677,3.6857.3922,5.14-.0054,1.4176-.3875,2.8833-.7883,5.2496-.0025l-.0597.1797c-2.3119-.7676-3.6857-.3921-5.14.0054-.8213.2244-1.6592.4534-2.6786.4534Z"/>
    <path class="cls-1" d="M21.5115,23.2863c-2.1635-1.12-3.5793-.9639-5.0775-.7988-1.4609.1611-2.9715.3274-5.1855-.8187-2.2141-1.1461-2.9502-2.4755-3.6622-3.7611-.7305-1.319-1.4206-2.5649-3.5837-3.6847l.087-.1681c2.2141,1.1461,2.9502,2.4755,3.6622,3.7611.7305,1.319,1.4206,2.5649,3.5837,3.6847,2.1633,1.1198,3.579.9639,5.0776.7988,1.4609-.161,2.9714-.3274,5.1854.8187l-.087.1681Z"/>
    <path class="cls-1" d="M22.4638,22.2139c-1.9614-1.4444-3.3841-1.5118-4.8902-1.5831-1.468-.0696-2.986-.1416-4.9935-1.62-2.0075-1.4783-2.5267-2.9065-3.0289-4.2876-.5152-1.417-1.0018-2.7555-2.9632-4.2l.1122-.1523c2.0075,1.4783,2.5267,2.9065,3.0289,4.2876.5152,1.4171,1.0018,2.7556,2.9632,4.2,1.9615,1.4444,3.3841,1.5118,4.8903,1.5831,1.4679.0696,2.9858.1416,4.9933,1.62l-.1122.1523Z"/>
    <path class="cls-1" d="M23.5719,21.3038c-1.7112-1.7335-3.1058-2.0226-4.5822-2.3287-1.4389-.2984-2.9269-.607-4.6786-2.3811-1.7515-1.7742-2.041-3.2661-2.3208-4.7089-.2872-1.4802-.5584-2.8782-2.2698-4.6116l.1348-.1331c1.7515,1.7742,2.0409,3.266,2.3207,4.7087.2872,1.4802.5584,2.8784,2.2699,4.6118,1.7112,1.7335,3.1058,2.0226,4.5822,2.3287,1.4389.2984,2.9269.607,4.6786,2.3811l-.1348.1331Z"/>
    <path class="cls-1" d="M24.8091,20.5783c-1.4191-1.9798-2.7512-2.4835-4.1615-3.0169-1.3747-.5197-2.796-1.0574-4.2485-3.0837-1.4525-2.0262-1.5049-3.5449-1.5557-5.0137-.0521-1.507-.1013-2.9303-1.5203-4.9101l.1538-.1102c1.4525,2.0262,1.5049,3.545,1.5557,5.0138.052,1.5068.1013,2.9303,1.5203,4.91,1.4191,1.9798,2.7513,2.4835,4.1616,3.0169,1.3746.5197,2.796,1.0574,4.2484,3.0837l-.1538.1102Z"/>
    <path class="cls-1" d="M26.1443,20.0552c-1.0919-2.1775-2.3288-2.8833-3.6383-3.6307-1.2764-.7285-2.5963-1.4818-3.7139-3.7104-1.1175-2.2285-.9316-3.7367-.7521-5.1953.1843-1.4965.3584-2.91-.7336-5.0875l.1693-.0848c1.1175,2.2286.9318,3.7369.7522,5.1955-.1844,1.4965-.3584,2.91.7335,5.0874,1.0919,2.1775,2.3288,2.8833,3.6383,3.6307,1.2764.7285,2.5963,1.4818,3.7139,3.7104l-.1693.0848Z"/>
    <path class="cls-1" d="M27.545,19.7474c-.7379-2.3215-1.8491-3.2123-3.0257-4.1552-1.1467-.9192-2.3325-1.8697-3.0876-4.2456-.7552-2.376-.3357-3.8366.0699-5.2491.4161-1.4493.8093-2.8182.0714-5.1395l.1804-.0574c.7552,2.376.3357,3.8366-.0699,5.2491-.4161,1.4493-.8093,2.8182-.0714,5.1395.7379,2.3215,1.8491,3.2123,3.0257,4.1552,1.1467.9192,2.3325,1.8697,3.0876,4.2456l-.1804.0574Z"/>
    <path class="cls-1" d="M28.9766,19.6625c-.3656-2.4082-1.3238-3.4618-2.3383-4.5772-.9888-1.0873-2.0113-2.2116-2.3855-4.6765-.3742-2.4647.2686-3.8418.8901-5.1735.6377-1.3663,1.2401-2.6568.8746-5.0651l.1871-.0283c.3742,2.4647-.2686,3.8418-.8901,5.1735-.6377,1.3663-1.2401,2.6568-.8746,5.0651.3657,2.4083,1.3239,3.4618,2.3384,4.5774.9888,1.0872,2.0112,2.2115,2.3854,4.6763l-.1871.0283Z"/>
    <path class="cls-1" d="M30.5931,19.8039l-.1893-.0012c.0157-2.4358-.766-3.6262-1.5935-4.8867-.8065-1.2286-1.6406-2.4989-1.6246-4.992.016-2.493.8662-3.7525,1.6885-4.9705.8436-1.2498,1.6405-2.4302,1.6561-4.866l.1893.0012c-.016,2.4931-.8663,3.7526-1.6885,4.9707-.8436,1.2498-1.6405,2.4301-1.6561,4.8659-.0157,2.4358.766,3.6264,1.5935,4.8868.8065,1.2286,1.6406,2.4989,1.6246,4.9919Z"/>
    <path class="cls-1" d="M31.9783,20.1951l-.1868-.0308c.3965-2.4034-.1892-3.7016-.8094-5.0759-.6044-1.3395-1.2294-2.7247-.8237-5.1845.4059-2.4598,1.4426-3.5709,2.4454-4.6453,1.0288-1.1025,2.0005-2.1437,2.3968-4.547l.1868.0308c-.4059,2.4598-1.4426,3.5709-2.4453,4.6454-1.0288,1.1023-2.0005,2.1436-2.397,4.5469s.1893,3.7014.8094,5.0758c.6044,1.3396,1.2295,2.7248.8237,5.1846Z"/>
    <path class="cls-1" d="M33.2854,20.7983l-.1797-.0597c.7675-2.3117.3921-3.6855-.0054-5.14-.3875-1.4176-.7881-2.8834-.0025-5.2496.7856-2.3661,1.9835-3.3012,3.1419-4.2056,1.1885-.9279,2.3111-1.8044,3.0787-4.116l.1797.0597c-.7856,2.366-1.9835,3.3012-3.1419,4.2056-1.1885.9278-2.3112,1.8043-3.0787,4.116-.7676,2.3118-.3922,3.6855.0054,5.14.3874,1.4176.7879,2.8835.0025,5.2496Z"/>
    <path class="cls-1" d="M34.4817,21.5984l-.1681-.087c1.1197-2.1632.9638-3.5788.7988-5.0775-.161-1.4609-.3274-2.9713.8187-5.1854,1.1461-2.2141,2.4755-2.9503,3.7611-3.6624,1.319-.7306,2.5649-1.4206,3.6847-3.5837l.1681.087c-1.1461,2.2141-2.4755,2.9502-3.7611,3.6622-1.319.7306-2.5649,1.4206-3.6847,3.5839-1.1197,2.1632-.9638,3.5788-.7988,5.0775.161,1.4609.3274,2.9713-.8187,5.1854Z"/>
    <path class="cls-1" d="M35.5384,22.5759l-.1523-.1122c1.4442-1.9614,1.5118-3.3841,1.5831-4.8902.0696-1.4679.1415-2.9858,1.6199-4.9933,1.4783-2.0076,2.9065-2.5269,4.2876-3.029,1.4171-.5152,2.7556-1.0018,4.2-2.9632l.1523.1122c-1.4783,2.0076-2.9065,2.5269-4.2876,3.029-1.417.5152-2.7555,1.0018-4.2,2.9632-1.4442,1.9614-1.5118,3.3841-1.5831,4.8902-.0695,1.4679-.1415,2.9858-1.6199,4.9933Z"/>
    <path class="cls-1" d="M36.4291,23.7067l-.1331-.1348c1.7335-1.7112,2.0226-3.1058,2.3287-4.5822.2984-1.4389.607-2.9269,2.3811-4.6786,1.7742-1.7515,3.2661-2.041,4.7089-2.3208,1.4802-.2872,2.8782-.5584,4.6116-2.2698l.1331.1348c-1.7742,1.7515-3.266,2.0409-4.7087,2.3207-1.4802.2872-2.8784.5584-4.6118,2.2699-1.7335,1.7112-2.0226,3.1058-2.3287,4.5822-.2984,1.4389-.607,2.9269-2.3811,4.6786Z"/>
    <path class="cls-1" d="M37.1319,24.9629l-.1102-.1538c1.9798-1.4191,2.4835-2.7512,3.0168-4.1615.5199-1.3747,1.0574-2.796,3.0837-4.2485,2.0262-1.4525,3.545-1.5049,5.0138-1.5557,1.5068-.0521,2.9303-.1013,4.91-1.5203l.1102.1538c-2.0262,1.4525-3.5449,1.5049-5.0137,1.5557-1.507.052-2.9303.1013-4.9101,1.5203-1.9798,1.4191-2.4835,2.7513-3.0168,4.1616-.5199,1.3746-1.0574,2.796-3.0837,4.2484Z"/>
    <path class="cls-1" d="M37.6295,26.3136l-.0848-.1693c2.1773-1.0919,2.8833-2.3288,3.6307-3.6383.7284-1.2764,1.4817-2.5963,3.7103-3.7139,2.2284-1.1173,3.7368-.9318,5.1953-.7521,1.4964.1844,2.91.3584,5.0875-.7336l.0848.1693c-2.2286,1.1175-3.7366.9316-5.1955.7522-1.4965-.1845-2.91-.3584-5.0874.7335s-2.8833,2.3288-3.6307,3.6383c-.7284,1.2764-1.4817,2.5963-3.7103,3.7139Z"/>
    <path class="cls-1" d="M37.9099,27.7254l-.0574-.1804c2.3214-.7379,3.2121-1.8491,4.1552-3.0257.9191-1.1467,1.8696-2.3325,4.2455-3.0876,2.3759-.755,3.8365-.336,5.2492.0699,1.4494.4161,2.8182.8091,5.1395.0714l.0574.1804c-2.3758.755-3.8366.3359-5.2492-.0699-1.4493-.4161-2.8183-.8091-5.1395-.0714-2.3214.7379-3.2121,1.8491-4.1552,3.0257-.9191,1.1467-1.8696,2.3325-4.2455,3.0876Z"/>
    <path class="cls-1" d="M37.9656,29.1636l-.0283-.1871c2.4083-.3656,3.462-1.3238,4.5775-2.3384,1.0872-.9887,2.2113-2.0112,4.6762-2.3854,2.4646-.3742,3.8417.2684,5.1735.8901,1.3663.6377,2.6571,1.24,5.0652.8746l.0283.1871c-2.4647.3743-3.8418-.2684-5.1736-.8901-1.3662-.6377-2.6566-1.2398-5.0651-.8746-2.4082.3657-3.4617,1.3239-4.5772,2.3384-1.0872.9887-2.2115,2.0112-4.6765,2.3854Z"/>
    <path class="cls-1" d="M57.5113,30.7196c-2.4931-.016-3.7526-.8663-4.9707-1.6885-1.2498-.8436-2.4302-1.6405-4.866-1.6561-.0238-.0001-.0478-.0002-.0715-.0002-2.388,0-3.5671.7744-4.8152,1.5937-1.2286.8067-2.4983,1.6372-4.992,1.6246l.0012-.1893c2.4329.0118,3.6265-.766,4.8868-1.5935,1.217-.7989,2.4751-1.6248,4.9216-1.6248.0234,0,.0467.0001.0703.0002,2.4931.016,3.7526.8663,4.9707,1.6885,1.2498.8436,2.4302,1.6405,4.866,1.6561l-.0012.1893Z"/>
    <path class="cls-1" d="M56.8575,35.1874c-2.4598-.4059-3.5709-1.4426-4.6454-2.4453-1.1023-1.0288-2.1436-2.0005-4.5469-2.397-2.4032-.3967-3.7014.1893-5.0759.8094-1.3396.6045-2.7248,1.2298-5.1846.8238l.0308-.1868c2.4032.3965,3.7016-.1893,5.076-.8095,1.3396-.6043,2.7252-1.2294,5.1845-.8237,2.4598.4059,3.5709,1.4426,4.6453,2.4454,1.1025,1.0288,2.1437,2.0005,4.547,2.3968l-.0308.1868Z"/>
    <path class="cls-1" d="M55.5128,39.4979c-2.366-.7856-3.3012-1.9835-4.2056-3.1419-.9278-1.1885-1.8043-2.3112-4.116-3.0787-2.3122-.7678-3.6858-.3922-5.14.0054-1.4177.3873-2.8835.7881-5.2496.0025l.0597-.1797c2.3117.7674,3.6854.3919,5.14-.0054,1.4177-.3874,2.8839-.7879,5.2496-.0025,2.3661.7856,3.3012,1.9835,4.2056,3.1419.9279,1.1885,1.8044,2.3111,4.116,3.0787l-.0597.1797Z"/>
    <path class="cls-1" d="M53.5105,43.545c-2.2141-1.1461-2.9502-2.4755-3.6622-3.7611-.7305-1.319-1.4206-2.5649-3.5837-3.6847-2.1633-1.1197-3.5789-.9638-5.0776-.7988-1.4608.1612-2.9713.3275-5.1854-.8187l.087-.1681c2.1634,1.1197,3.579.9638,5.0775.7988,1.461-.1611,2.9715-.3274,5.1855.8187,2.2141,1.1461,2.9502,2.4755,3.6622,3.7611.7305,1.319,1.4206,2.5649,3.5837,3.6847l-.087.1681Z"/>
    <path class="cls-1" d="M50.8997,47.2289c-2.0075-1.4783-2.5267-2.9065-3.0289-4.2876-.5152-1.417-1.0018-2.7555-2.9632-4.2-1.9615-1.4442-3.3841-1.5118-4.8903-1.5831-1.4679-.0695-2.9858-.1415-4.9933-1.6199l.1122-.1523c1.9614,1.4442,3.3841,1.5118,4.8902,1.5831,1.468.0696,2.986.1415,4.9935,1.6199,2.0075,1.4783,2.5267,2.9065,3.0289,4.2876.5152,1.4171,1.0018,2.7556,2.9632,4.2l-.1122.1523Z"/>
    <path class="cls-1" d="M47.7444,50.4594c-1.7515-1.7742-2.0409-3.266-2.3208-4.7087-.2872-1.4802-.5584-2.8784-2.2698-4.6118-1.7112-1.7335-3.1058-2.0226-4.5822-2.3288-1.4389-.2984-2.9271-.6069-4.6787-2.3811l.1348-.1331c1.7113,1.7335,3.1059,2.0226,4.5823,2.3288,1.4391.2984,2.9269.607,4.6786,2.3811,1.7515,1.7742,2.0409,3.266,2.3208,4.7087.2872,1.4802.5584,2.8784,2.2698,4.6118l-.1348.1331Z"/>
    <path class="cls-1" d="M44.1229,53.1561c-1.4525-2.0262-1.5049-3.5449-1.5557-5.0137-.052-1.507-.1013-2.9303-1.5203-4.9101-1.4191-1.9798-2.7513-2.4835-4.1616-3.0168-1.3746-.5199-2.796-1.0574-4.2484-3.0837l.1538-.1102c1.4191,1.9798,2.7512,2.4835,4.1615,3.0168,1.3747.5199,2.796,1.0574,4.2485,3.0837,1.4525,2.0262,1.5049,3.545,1.5557,5.0138.052,1.5068.1013,2.9303,1.5203,4.91l-.1538.1102Z"/>
    <path class="cls-1" d="M40.1241,55.2533c-1.1175-2.2286-.9318-3.7368-.7522-5.1955.1844-1.4965.3584-2.91-.7335-5.0874s-2.3288-2.8833-3.6383-3.6307c-1.2764-.7284-2.5963-1.4817-3.7139-3.7103l.1693-.0848c1.0919,2.1773,2.3288,2.8833,3.6383,3.6307,1.2764.7284,2.5963,1.4817,3.7139,3.7103,1.1175,2.2285.9316,3.7368.7521,5.1953-.1843,1.4965-.3584,2.91.7336,5.0875l-.1693.0848Z"/>
    <path class="cls-1" d="M35.8466,56.6993c-.7552-2.376-.3357-3.8366.0699-5.2492.4161-1.4493.8091-2.8181.0714-5.1395-.7379-2.3214-1.8491-3.2121-3.0257-4.1552-1.1467-.9191-2.3325-1.8696-3.0876-4.2455l.1804-.0574c.7379,2.3214,1.8491,3.2121,3.0257,4.1552,1.1467.9191,2.3325,1.8696,3.0876,4.2455.7552,2.376.3357,3.8366-.0699,5.2492-.4162,1.4492-.8093,2.8181-.0714,5.1395l-.1804.0574Z"/>
    <path class="cls-1" d="M31.3955,57.4581c-.3742-2.4649.2686-3.8419.8901-5.1736.6377-1.3663,1.2401-2.6568.8746-5.0651-.3657-2.4082-1.3239-3.4617-2.3384-4.5772-.9887-1.0872-2.0112-2.2115-2.3854-4.6765l.1871-.0283c.3656,2.4083,1.3238,3.462,2.3384,4.5775.9887,1.0872,2.0112,2.2113,2.3854,4.6762.3742,2.4647-.2686,3.8418-.8901,5.1735-.6377,1.3663-1.2401,2.6569-.8746,5.0652l-.1871.0283Z"/>
  </g>
  <circle class="cls-1" cx="11.9441" cy="35.6182" r=".8203"/>
  <circle class="cls-1" cx="48.8428" cy="34.0472" r=".8203"/>
  <circle class="cls-1" cx="29.0236" cy="4.6633" r=".8216"/>
</svg>