<?xml version="1.0" encoding="UTF-8"?>
<svg id="Layer_1" data-name="Layer 1" xmlns="http://www.w3.org/2000/svg" viewBox="0 0 57.6 57.6">
  <defs>
    <style>
      .cls-1 {
        fill: #d64000;
      }
    </style>
  </defs>
  <g>
    <g id="_Radial_Repeat_" data-name="&amp;lt;Radial Repeat&amp;gt;">
      <polygon class="cls-1" points="27.6349 57.5999 27.4498 57.5583 32.0372 37.168 34.7067 56.5946 34.5186 56.6204 31.9919 38.2337 27.6349 57.5999"/>
    </g>
    <g id="_Radial_Repeat_-2" data-name="&amp;lt;Radial Repeat&amp;gt;">
      <polygon class="cls-1" points="20.018 55.8242 19.8423 55.7525 26.8474 38.5658 13.3911 53.1589 13.2514 53.0302 27.4194 37.6654 20.018 55.8242"/>
    </g>
    <g id="_Radial_Repeat_-3" data-name="&amp;lt;Radial Repeat&amp;gt;">
      <polygon class="cls-1" points="7.6826 47.8125 7.5662 47.6626 22.2261 36.281 3.276 42.1909 3.2194 42.0097 23.1716 35.7873 7.6826 47.8125"/>
    </g>
    <g id="_Radial_Repeat_-4" data-name="&amp;lt;Radial Repeat&amp;gt;">
      <polygon class="cls-1" points="1.0055 34.7068 .9795 34.5187 19.3663 31.9919 0 27.635 .0418 27.4497 20.432 32.0372 1.0055 34.7068"/>
    </g>
    <g id="_Radial_Repeat_-5" data-name="&amp;lt;Radial Repeat&amp;gt;">
      <polygon class="cls-1" points="19.9345 27.4194 1.7757 20.0181 1.8474 19.8424 19.0342 26.8474 4.4409 13.391 4.5697 13.2514 19.9345 27.4194"/>
    </g>
    <g id="_Radial_Repeat_-6" data-name="&amp;lt;Radial Repeat&amp;gt;">
      <polygon class="cls-1" points="21.8125 23.1716 9.7872 7.6826 9.9373 7.5661 21.3189 22.2261 15.409 3.2759 15.5902 3.2194 21.8125 23.1716"/>
    </g>
    <g id="_Radial_Repeat_-7" data-name="&amp;lt;Radial Repeat&amp;gt;">
      <polygon class="cls-1" points="25.5628 20.432 22.8933 1.0054 23.0814 .9796 25.6081 19.3662 29.9651 0 30.1502 .0417 25.5628 20.432"/>
    </g>
    <g id="_Radial_Repeat_-8" data-name="&amp;lt;Radial Repeat&amp;gt;">
      <polygon class="cls-1" points="30.1805 19.9345 37.5818 1.7757 37.7576 1.8474 30.7525 19.0341 44.2088 4.441 44.3485 4.5697 30.1805 19.9345"/>
    </g>
    <g id="_Radial_Repeat_-9" data-name="&amp;lt;Radial Repeat&amp;gt;">
      <polygon class="cls-1" points="34.4284 21.8125 49.9174 9.7873 50.0338 9.9372 35.3739 21.3188 54.324 15.4089 54.3806 15.5901 34.4284 21.8125"/>
    </g>
    <g id="_Radial_Repeat_-10" data-name="&amp;lt;Radial Repeat&amp;gt;">
      <polygon class="cls-1" points="57.5582 30.1502 37.168 25.5628 56.5945 22.8932 56.6205 23.0813 38.2337 25.608 57.6 29.965 57.5582 30.1502"/>
    </g>
    <g id="_Radial_Repeat_-11" data-name="&amp;lt;Radial Repeat&amp;gt;">
      <polygon class="cls-1" points="53.0301 44.3484 37.6655 30.1805 55.8242 37.5818 55.7525 37.7576 38.5658 30.7525 53.1589 44.2089 53.0301 44.3484"/>
    </g>
    <g id="_Radial_Repeat_-12" data-name="&amp;lt;Radial Repeat&amp;gt;">
      <polygon class="cls-1" points="42.0097 54.3805 35.7873 34.4283 47.8126 49.9174 47.6626 50.0338 36.281 35.3738 42.1909 54.324 42.0097 54.3805"/>
    </g>
  </g>
  <circle class="cls-1" cx="9.8458" cy="33.3956" r=".8227"/>
  <circle class="cls-1" cx="40.3941" cy="48.9266" r=".8227"/>
  <circle class="cls-1" cx="45.4599" cy="18.2466" r=".8239"/>
</svg>